<svg width="14" height="15" viewBox="0 0 14 15" fill="none" xmlns="http://www.w3.org/2000/svg">
<g clip-path="url(#clip0_173_23)">
<path d="M13.7901 9.19335C12.8552 12.9434 9.05681 15.2254 5.30634 14.2904C1.55762 13.3555 -0.724601 9.55713 0.210555 5.80732C1.14506 2.05685 4.94321 -0.225586 8.69259 0.709352C12.4428 1.64429 14.7251 5.4431 13.7901 9.19335Z" fill="#F7931A"/>
<path d="M10.0863 6.50274C10.2254 5.57131 9.51621 5.07059 8.54649 4.73656L8.86105 3.47481L8.0928 3.2834L7.78655 4.5119C7.58486 4.46159 7.37749 4.41412 7.17143 4.36709L7.47986 3.13049L6.71227 2.93909L6.39749 4.2004C6.23036 4.16234 6.0663 4.12471 5.90705 4.08512L5.90793 4.08118L4.84874 3.81671L4.64443 4.63702C4.64443 4.63702 5.21427 4.76762 5.20224 4.77571C5.5133 4.85337 5.56974 5.05921 5.56011 5.2224L5.2018 6.65981C5.22324 6.66527 5.25102 6.67315 5.28164 6.6854L5.20071 6.66527L4.69824 8.67887C4.66018 8.77337 4.56371 8.91512 4.34627 8.86131C4.35393 8.87246 3.78802 8.72196 3.78802 8.72196L3.40674 9.60134L4.40643 9.85049C4.59236 9.89709 4.77458 9.94587 4.95374 9.99181L4.63589 11.2682L5.40305 11.4596L5.71805 10.197C5.92739 10.2539 6.13083 10.3064 6.32989 10.3558L6.01621 11.6125L6.78424 11.8039L7.10208 10.5302C8.41174 10.778 9.39677 10.678 9.81086 9.49371C10.1449 8.53996 9.79446 7.98981 9.10539 7.63084C9.60721 7.51468 9.98543 7.18459 10.0863 6.50274ZM8.33124 8.96346C8.09368 9.91721 6.48805 9.40184 5.96721 9.27234L6.38896 7.58162C6.90958 7.71156 8.57864 7.96881 8.33124 8.96346ZM8.56858 6.48896C8.35202 7.35652 7.01546 6.91574 6.58168 6.80768L6.96405 5.27424C7.39783 5.38231 8.79433 5.58399 8.56858 6.48896Z" fill="white"/>
</g>
<defs>
<clipPath id="clip0_173_23">
<rect width="14" height="14" fill="white" transform="translate(0 0.5)"/>
</clipPath>
</defs>
</svg>
