<svg width="13" height="12" viewBox="0 0 13 12" fill="none" xmlns="http://www.w3.org/2000/svg">
<path fill-rule="evenodd" clip-rule="evenodd" d="M2.2998 5.25001C2.2998 4.55965 2.85945 4 3.54981 4H7.5498C8.24016 4 8.79981 4.55965 8.79981 5.25001V9.25C8.79981 9.94036 8.24016 10.5 7.5498 10.5H3.54981C2.85945 10.5 2.2998 9.94036 2.2998 9.25V5.25001ZM3.54981 4.50001C3.13559 4.50001 2.79981 4.83578 2.79981 5.25001V9.25C2.79981 9.66421 3.13559 10 3.54981 10H7.5498C7.96401 10 8.2998 9.66421 8.2998 9.25V5.25001C8.2998 4.83578 7.96401 4.50001 7.5498 4.50001H3.54981Z" fill="#FF9179"/>
<path fill-rule="evenodd" clip-rule="evenodd" d="M4.7998 2.75001C4.7998 2.05965 5.35944 1.5 6.04979 1.5H10.0498C10.7401 1.5 11.2998 2.05965 11.2998 2.75001V6.75C11.2998 7.44036 10.7402 8.00001 10.0498 8.00001H9.89594C9.75789 8.00001 9.64595 7.88807 9.64595 7.74999C9.64595 7.61194 9.75789 7.5 9.89594 7.5H10.0498C10.464 7.5 10.7998 7.16421 10.7998 6.75V2.75001C10.7998 2.33578 10.464 2.00001 10.0498 2.00001H6.04979C5.63559 2.00001 5.29979 2.33578 5.29979 2.75001V2.90385C5.29979 3.04192 5.18787 3.15384 5.0498 3.15384C4.91172 3.15384 4.7998 3.04192 4.7998 2.90385V2.75001Z" fill="#FF9179"/>
</svg>
