<svg xmlns="http://www.w3.org/2000/svg" width="68" height="68" viewBox="0 0 68 68" fill="none">
  <g clip-path="url(#clip0_22_10505)">
    <path d="M32.9163 27.3014C38.4296 25.8241 41.7014 20.1571 40.2242 14.6438C38.7469 9.13056 33.0799 5.85874 27.5667 7.33602C22.0534 8.81329 18.7816 14.4803 20.2588 19.9935C21.7361 25.5068 27.4031 28.7786 32.9163 27.3014Z" fill="#DAFF73"/>
    <path d="M50.9005 41.5184L41.5042 38.3958L37.834 37.1698L37.7463 37.1755L35.6321 31.6344L28.6048 31.9552C27.2953 32.0199 26.0293 32.4462 24.9474 33.1867L16.432 39.1079L19.8358 51.8109C24.193 55.452 29.3971 57.9371 34.9679 59.037L39.0478 59.8483C39.6783 59.9783 40.3345 59.8834 40.9024 59.5801C41.4703 59.2769 41.9141 58.7843 42.1568 58.188C42.3995 57.5917 42.4258 56.9292 42.2311 56.3156C42.0364 55.7019 41.633 55.1758 41.0909 54.8285L41.2966 54.7912L41.3133 54.7867L42.0251 55.0275C42.5631 55.2096 43.1459 55.2107 43.6846 55.0306C44.2233 54.8505 44.6883 54.4992 45.0087 54.0301C45.1398 53.8308 45.2452 53.6156 45.3221 53.3898C45.434 53.0644 45.4797 52.7201 45.4567 52.3768C45.4336 52.0336 45.3423 51.6984 45.188 51.391C45.0337 51.0835 44.8195 50.8099 44.5581 50.5864C44.2967 50.3628 43.9932 50.1936 43.6655 50.0889L46.2007 50.9253C46.6133 51.0631 47.0538 51.095 47.4819 51.018C47.91 50.941 48.3118 50.7576 48.6505 50.4847C49.0391 50.1666 49.331 49.7462 49.4933 49.2709C49.7079 48.6177 49.6547 47.906 49.3454 47.292C49.0361 46.6779 48.496 46.2115 47.8434 45.995L47.2298 45.7814C47.9582 46.0177 48.6469 46.2451 49.2605 46.4587C49.9122 46.6602 50.617 46.5981 51.2234 46.2858C51.8299 45.9734 52.2897 45.4358 52.5042 44.7882C52.7186 44.1406 52.6706 43.4347 52.3704 42.8221C52.0703 42.2096 51.5419 41.7391 50.8987 41.5118L50.9005 41.5184Z" fill="#DAFF73"/>
    <path d="M50.7543 42.0373L37.417 37.6096L33.3505 40.2489C32.8914 40.547 32.3557 40.7058 31.8082 40.7059C31.2608 40.7061 30.7251 40.5477 30.2657 40.2498C29.8758 39.9969 29.5541 39.652 29.3289 39.2454C29.1037 38.8389 28.982 38.3831 28.9744 37.9184C28.9669 37.4537 29.0738 36.9943 29.2857 36.5807C29.4976 36.167 29.808 35.8118 30.1895 35.5465L36.8584 30.9064C37.802 30.2499 38.9331 29.9174 40.0818 29.9588L51.606 30.375L54.9701 42.9299L54.5974 43.0297C53.9275 43.2082 53.2229 43.2108 52.5516 43.0373C51.8804 42.8639 51.2653 42.5202 50.7657 42.0396L50.7543 42.0373Z" fill="#DAFF73"/>
    <path d="M16.3077 38.5242L19.8741 51.8344C19.9924 52.2757 19.9305 52.7459 19.7021 53.1415C19.4736 53.5371 19.0974 53.8258 18.6562 53.944L12.001 55.7273L7.54297 39.0895L14.1981 37.3062C14.6393 37.188 15.1095 37.2499 15.5051 37.4783C15.9007 37.7067 16.1894 38.083 16.3077 38.5242Z" fill="#FFA6D6"/>
    <path d="M52.466 27.056L59.1211 25.2728L63.5792 41.9106L56.9241 43.6938C56.4828 43.812 56.0127 43.7501 55.6171 43.5217C55.2214 43.2933 54.9328 42.9171 54.8145 42.4758L51.2481 29.1656C51.1298 28.7243 51.1917 28.2542 51.4201 27.8586C51.6485 27.4629 52.0248 27.1743 52.466 27.056Z" fill="#BCE6EC"/>
    <path d="M33.2478 28.5392C35.3868 27.966 37.3077 26.7715 38.7677 25.1067C40.2278 23.4418 41.1613 21.3814 41.4504 19.186C41.7394 16.9906 41.3709 14.7587 40.3915 12.7727C39.4121 10.7867 37.8658 9.13572 35.9481 8.02853C34.0304 6.92135 31.8275 6.40769 29.6178 6.55252C27.4082 6.69734 25.2911 7.49415 23.5344 8.84217C21.7776 10.1902 20.46 12.0289 19.7482 14.1257C19.0364 16.2226 18.9624 18.4834 19.5355 20.6224C20.3073 23.4885 22.1843 25.9316 24.7549 27.4157C27.3255 28.8999 30.3798 29.3039 33.2478 28.5392ZM27.8981 8.57382C29.708 8.08887 31.621 8.1515 33.3953 8.75378C35.1695 9.35606 36.7254 10.4709 37.866 11.9574C39.0066 13.444 39.6808 15.2353 39.8034 17.105C39.9259 18.9747 39.4913 20.8387 38.5545 22.4614C37.6176 24.0841 36.2206 25.3925 34.5402 26.2212C32.8597 27.0499 30.9712 27.3617 29.1135 27.1171C27.2559 26.8726 25.5124 26.0826 24.1037 24.8472C22.695 23.6118 21.6843 21.9864 21.1993 20.1765C20.5519 17.7497 20.8936 15.1652 22.1494 12.9899C23.4053 10.8147 25.4727 9.22654 27.8981 8.57382ZM59.007 24.8468L52.3519 26.6301C51.7892 26.7821 51.2946 27.1199 50.9481 27.5886C50.6017 28.0572 50.4239 28.6292 50.4437 29.2117L40.3188 28.8468C39.0142 28.8022 37.7301 29.18 36.6576 29.9241L35.3987 30.7964L28.4879 31.1128C27.028 31.179 25.6166 31.6573 24.4173 32.4924L16.7952 37.7945C16.4833 37.3927 16.0597 37.092 15.5776 36.93C15.0954 36.768 14.5762 36.7518 14.085 36.8837L7.42985 38.6669C7.20922 38.726 7.02111 38.8703 6.9069 39.0682C6.79269 39.266 6.76175 39.501 6.82086 39.7217L11.2789 56.3595C11.3381 56.5801 11.4824 56.7682 11.6802 56.8824C11.878 56.9966 12.1131 57.0276 12.3337 56.9684L18.9888 55.1852C19.3994 55.0747 19.7764 54.8645 20.0863 54.5734C20.3962 54.2822 20.6294 53.9191 20.7653 53.5162C24.8881 56.5934 29.6459 58.7114 34.6915 59.7155L38.7554 60.5204C39.3735 60.6453 40.0137 60.6051 40.6113 60.4039C41.209 60.2027 41.7432 59.8476 42.16 59.3744C42.5768 58.9011 42.8616 58.3264 42.9856 57.7081C43.1097 57.0898 43.0687 56.4497 42.8668 55.8523C43.1077 55.8502 43.3477 55.8223 43.5828 55.7692C43.8107 55.7078 44.0319 55.6235 44.2428 55.5175C44.9316 55.1743 45.4844 54.6087 45.8117 53.9123C46.1391 53.2158 46.2217 52.4292 46.0464 51.68C46.5907 51.8193 47.1611 51.8215 47.7065 51.6863C47.9339 51.625 48.1545 51.5408 48.3649 51.435C49.0983 51.0697 49.6762 50.4534 49.9938 49.6982C50.3114 48.9429 50.3475 48.0988 50.0956 47.3192C50.7827 47.307 51.4477 47.075 51.9934 46.6574C52.539 46.2397 52.9365 45.6582 53.1276 44.9982C53.2764 44.5537 53.3324 44.0835 53.2923 43.6166L54.1941 43.3749C54.425 43.9645 54.8644 44.4487 55.4288 44.7357C55.9932 45.0226 56.6433 45.0924 57.2557 44.9316L63.9109 43.1484C64.1315 43.0893 64.3196 42.9449 64.4338 42.7471C64.548 42.5493 64.579 42.3142 64.5198 42.0936L60.0618 25.4558C60.0026 25.2352 59.8583 25.0471 59.6605 24.9329C59.4627 24.8187 59.2276 24.7877 59.007 24.8468ZM19.152 52.4666C19.2111 52.6873 19.1802 52.9224 19.066 53.1202C18.9518 53.318 18.7637 53.4623 18.543 53.5214L12.7198 55.0818L8.70755 40.1078L14.5308 38.5474C14.7514 38.4883 14.9865 38.5193 15.1843 38.6335C15.3821 38.7477 15.5264 38.9358 15.5856 39.1564L19.152 52.4666ZM51.4966 44.4615C51.4254 44.6762 51.3127 44.8749 51.1648 45.046C51.0169 45.2172 50.8367 45.3575 50.6346 45.459C50.4324 45.5605 50.2123 45.6212 49.9867 45.6377C49.7611 45.6541 49.5344 45.626 49.3197 45.5548L40.232 42.5385L40.0208 43.1747C39.9761 43.226 39.942 43.2856 39.9204 43.3502C39.8989 43.4147 39.8903 43.4829 39.8951 43.5507L39.6891 44.173L40.4387 44.4215C40.447 44.4193 40.456 44.4329 40.4661 44.4373L47.3661 46.7292C47.7925 46.8787 48.1431 47.1898 48.3423 47.5954C48.5415 48.001 48.5733 48.4687 48.4309 48.8975C48.2884 49.3264 47.9832 49.6821 47.5809 49.8879C47.1787 50.0938 46.7116 50.1334 46.2805 49.9981L43.8103 49.1781L43.7821 49.166L37.7771 47.1729L37.7638 47.1765L37.194 46.9868C36.9785 46.9191 36.7449 46.9389 36.5438 47.0418C36.3427 47.1448 36.1901 47.3226 36.1188 47.537C36.0476 47.7515 36.0635 47.9853 36.1631 48.1881C36.2627 48.3909 36.438 48.5465 36.6512 48.6212L43.2533 50.8128C43.5725 50.9235 43.8521 51.1257 44.0572 51.3942C44.2624 51.6626 44.384 51.9855 44.4071 52.3226C44.4301 52.6597 44.3535 52.9961 44.1868 53.29C44.0201 53.5838 43.7706 53.8222 43.4694 53.9754C43.0611 54.1795 42.5884 54.2131 42.1553 54.0689L35.5276 51.8682C35.4197 51.8304 35.3054 51.8144 35.1913 51.8212C35.0772 51.828 34.9656 51.8575 34.863 51.9079C34.7604 51.9582 34.6689 52.0285 34.5937 52.1147C34.5186 52.2008 34.4613 52.301 34.4253 52.4095C34.3893 52.5179 34.3752 52.6325 34.3839 52.7465C34.3926 52.8604 34.4239 52.9715 34.476 53.0733C34.528 53.175 34.5998 53.2654 34.6872 53.3391C34.7745 53.4128 34.8757 53.4684 34.9848 53.5026L35.3293 53.6172C35.3376 53.615 35.3471 53.6303 35.3588 53.6342L40.0558 55.1914C40.5295 55.3268 40.9312 55.6424 41.1751 56.0704C41.4189 56.4985 41.4854 57.005 41.3604 57.4815C41.2353 57.958 40.9286 58.3666 40.506 58.6197C40.0834 58.8729 39.5784 58.9504 39.0993 58.8358L35.024 58.0215C29.7247 56.9662 24.7678 54.6192 20.5929 51.1889L17.4446 39.4393L25.3996 33.909C26.3332 33.2605 27.4307 32.8886 28.5662 32.8358L32.7466 32.6447L30.1675 34.4396C29.371 34.9749 28.8197 35.8047 28.6349 36.7464C28.4502 37.6881 28.6471 38.6647 29.1824 39.4612C29.7176 40.2578 30.5474 40.8091 31.4891 40.9938C32.4309 41.1786 33.4074 40.9817 34.204 40.4464L37.8151 38.1039L50.4045 42.2826C50.6375 42.3602 50.8512 42.4868 51.0313 42.6539C51.2114 42.8209 51.3537 43.0245 51.4486 43.2511C51.4609 43.2914 51.4757 43.3309 51.4928 43.3694C51.6127 43.7228 51.6143 44.1074 51.4966 44.4615ZM53.7213 41.7237L52.7231 41.9912C52.2989 41.3579 51.6749 40.8848 50.9506 40.6473L37.9692 36.3365C37.8467 36.2958 37.7166 36.2832 37.5886 36.2996C37.4606 36.316 37.3379 36.361 37.2296 36.4312L33.2709 39.0006C32.9637 39.2003 32.605 39.3067 32.2386 39.3068C31.8721 39.3069 31.5134 39.2007 31.2061 39.001C30.9447 38.8321 30.729 38.6014 30.578 38.3293C30.4269 38.0572 30.3453 37.7521 30.3402 37.4409C30.335 37.1298 30.4067 36.8221 30.5487 36.5452C30.6907 36.2683 30.8987 36.0306 31.1544 35.8532L37.6456 31.3356C38.4116 30.8039 39.329 30.5343 40.2608 30.5671L50.8347 30.9508L53.7213 41.7237ZM62.6332 41.7075L56.8099 43.2679C56.5893 43.327 56.3542 43.296 56.1564 43.1818C55.9586 43.0676 55.8143 42.8795 55.7551 42.6589L52.1887 29.3486C52.1296 29.128 52.1605 28.8929 52.2747 28.6951C52.3889 28.4973 52.577 28.353 52.7977 28.2938L58.6209 26.7335L62.6332 41.7075Z" fill="#202025"/>
    <path d="M35.8903 16.5834L24 16.5834C24 15.5707 24.7676 14.7497 25.7143 14.7497L31.2857 14.7497L31.2857 12.3264C31.2857 12.0362 31.6136 11.8913 31.8051 12.0962L35.9224 16.5004C35.9511 16.5312 35.9306 16.5834 35.8903 16.5834ZM28.1949 22.9044L24.0806 18.5034C24.0506 18.4713 24.072 18.4172 24.114 18.4172L36 18.4172C36 19.4299 35.2324 20.2509 34.2857 20.2509L28.7143 20.2509L28.7143 22.6742C28.7143 22.964 28.3864 23.1093 28.1949 22.9044Z" fill="#202025"/>
  </g>
  <defs>
    <clipPath id="clip0_22_10505">
      <rect width="55.119" height="55.119" fill="white" transform="translate(0 14.2659) rotate(-15)"/>
    </clipPath>
  </defs>
</svg>