<svg width="15" height="14" viewBox="0 0 15 14" fill="none" xmlns="http://www.w3.org/2000/svg">
<g clip-path="url(#clip0_3515_13313)">
<path d="M2.96889 12.3842L3.40973 11.7775L3.40973 11.7775L2.96889 12.3842ZM2.32364 11.739L1.71687 12.1798L2.32364 11.739ZM11.7096 11.739L11.1028 11.2981L11.1028 11.2981L11.7096 11.739ZM11.0643 12.3842L10.6235 11.7775L10.6235 11.7775L11.0643 12.3842ZM2.96889 2.99829L2.52806 2.39152H2.52806L2.96889 2.99829ZM2.32364 3.64355L1.71687 3.20271L1.71687 3.20271L2.32364 3.64355ZM8.17428 3.1954C8.58846 3.20037 8.92825 2.86863 8.93321 2.45445C8.93818 2.04026 8.60644 1.70048 8.19226 1.69551L8.17428 3.1954ZM13.0123 6.5156C13.0074 6.10141 12.6676 5.76968 12.2534 5.77464C11.8392 5.77961 11.5075 6.11939 11.5125 6.53358L13.0123 6.5156ZM6.21546 7.07298C5.92257 7.36588 5.92257 7.84075 6.21546 8.13364C6.50836 8.42654 6.98323 8.42654 7.27612 8.13364L6.21546 7.07298ZM9.6298 -0.158821C9.21559 -0.156973 8.8813 0.180308 8.88315 0.594518C8.885 1.00873 9.22228 1.34301 9.63649 1.34116L9.6298 -0.158821ZM11.0811 0.584712L11.0844 1.3347L11.0811 0.584712ZM13.7644 3.26805L13.0144 3.2647L13.7644 3.26805ZM13.0079 4.71262C13.0061 5.12682 13.3404 5.46411 13.7546 5.46595C14.1688 5.4678 14.5061 5.13352 14.5079 4.71931L13.0079 4.71262ZM13.208 0.882611L13.667 0.289484L13.667 0.289483L13.208 0.882611ZM13.4665 1.1411L14.0596 0.682079L14.0596 0.682078L13.4665 1.1411ZM13.3325 1.01659L12.8725 0.424234L12.8354 0.453045L12.8022 0.486259L13.3325 1.01659ZM7.0166 12.1913C5.90622 12.1913 5.13368 12.1902 4.54079 12.126C3.96193 12.0633 3.64392 11.9476 3.40973 11.7775L2.52806 12.991C3.06056 13.3779 3.67273 13.5407 4.37922 13.6173C5.07167 13.6923 5.93964 13.6913 7.0166 13.6913V12.1913ZM1.0166 7.69125C1.0166 8.76822 1.01557 9.63619 1.09059 10.3286C1.16714 11.0351 1.32998 11.6473 1.71687 12.1798L2.9304 11.2981C2.76025 11.0639 2.64458 10.7459 2.58187 10.1671C2.51763 9.57417 2.5166 8.80163 2.5166 7.69125H1.0166ZM3.40973 11.7775C3.2258 11.6438 3.06404 11.4821 2.9304 11.2981L1.71687 12.1798C1.94303 12.4911 2.21677 12.7648 2.52806 12.991L3.40973 11.7775ZM11.5166 7.69125C11.5166 8.80163 11.5156 9.57417 11.4513 10.1671C11.3886 10.7459 11.273 11.0639 11.1028 11.2981L12.3163 12.1798C12.7032 11.6473 12.8661 11.0351 12.9426 10.3286C13.0176 9.63619 13.0166 8.76822 13.0166 7.69125H11.5166ZM7.0166 13.6913C8.09357 13.6913 8.96154 13.6923 9.65398 13.6173C10.3605 13.5407 10.9726 13.3779 11.5051 12.991L10.6235 11.7775C10.3893 11.9476 10.0713 12.0633 9.49241 12.126C8.89952 12.1902 8.12698 12.1913 7.0166 12.1913V13.6913ZM11.1028 11.2981C10.9692 11.4821 10.8074 11.6438 10.6235 11.7775L11.5051 12.991C11.8164 12.7648 12.0902 12.4911 12.3163 12.1798L11.1028 11.2981ZM7.0166 1.69125C5.93964 1.69125 5.07167 1.69022 4.37922 1.76525C3.67273 1.84179 3.06056 2.00464 2.52806 2.39152L3.40973 3.60505C3.64392 3.4349 3.96193 3.31923 4.54079 3.25652C5.13368 3.19228 5.90622 3.19125 7.0166 3.19125V1.69125ZM2.5166 7.69125C2.5166 6.58088 2.51763 5.80834 2.58187 5.21544C2.64458 4.63658 2.76025 4.31857 2.9304 4.08439L1.71687 3.20271C1.32998 3.73521 1.16714 4.34739 1.09059 5.05387C1.01557 5.74632 1.0166 6.61429 1.0166 7.69125H2.5166ZM2.52806 2.39152C2.21678 2.61768 1.94303 2.89143 1.71687 3.20271L2.9304 4.08439C3.06404 3.90045 3.22579 3.73869 3.40973 3.60505L2.52806 2.39152ZM7.0166 3.19125C7.44683 3.19125 7.82899 3.19126 8.17428 3.1954L8.19226 1.69551C7.83621 1.69124 7.44445 1.69125 7.0166 1.69125V3.19125ZM13.0166 7.69125C13.0166 7.26341 13.0166 6.87165 13.0123 6.5156L11.5125 6.53358C11.5166 6.87886 11.5166 7.26102 11.5166 7.69125H13.0166ZM9.63649 1.34116L11.0844 1.3347L11.0777 -0.165281L9.6298 -0.158821L9.63649 1.34116ZM13.0144 3.2647L13.0079 4.71262L14.5079 4.71931L14.5144 3.27139L13.0144 3.2647ZM11.0844 1.3347C11.6794 1.33205 12.0622 1.33148 12.348 1.36269C12.6187 1.39225 12.7058 1.44232 12.749 1.47574L13.667 0.289483C13.3153 0.0172737 12.9162 -0.0841789 12.5109 -0.128448C12.1206 -0.17107 11.6374 -0.167778 11.0777 -0.165281L11.0844 1.3347ZM14.5144 3.27139C14.5169 2.71169 14.5202 2.22853 14.4776 1.83824C14.4333 1.43287 14.3318 1.03382 14.0596 0.682079L12.8734 1.60012C12.9068 1.6433 12.9569 1.73038 12.9864 2.00108C13.0176 2.28686 13.0171 2.66972 13.0144 3.2647L14.5144 3.27139ZM7.27612 8.13364L13.8628 1.54692L12.8022 0.486259L6.21546 7.07298L7.27612 8.13364ZM12.749 1.47574C12.7726 1.49399 12.7949 1.5137 12.8159 1.53476L13.8783 0.475795C13.812 0.409299 13.7414 0.34706 13.667 0.289484L12.749 1.47574ZM12.8159 1.53476C12.8364 1.5553 12.8556 1.57712 12.8734 1.60012L14.0596 0.682078C14.0035 0.609528 13.9429 0.54064 13.8783 0.475795L12.8159 1.53476ZM13.7925 1.60894L13.8071 1.59763L12.8871 0.412923L12.8725 0.424234L13.7925 1.60894Z" fill="#FF9179"/>
</g>
<defs>
<clipPath id="clip0_3515_13313">
<rect width="14" height="14" fill="white" transform="translate(0.600098)"/>
</clipPath>
</defs>
</svg>
