<svg width="30" height="32" viewBox="0 0 30 32" fill="none" xmlns="http://www.w3.org/2000/svg">
<path d="M29.511 13.9353C27.708 13.212 25.8191 12.7207 23.888 12.4739C22.4775 12.2543 20.8169 12.0346 19.4151 11.8572C20.7653 9.98197 24.7636 5.23464 25.4345 4.07737C25.6237 3.76482 25.264 3.32557 24.9966 3.0637C23.5002 1.49252 20.6105 0.901216 18.3916 0.563328C17.1188 0.360595 11.8038 -0.28139 10.9008 0.14097C9.81717 0.647803 1.80174 12.4739 1.56093 14.2732C1.56093 14.5773 1.66413 14.6955 1.96514 14.8053C3.22938 15.2615 8.93135 15.971 10.2042 16.2667C8.48413 19.2232 0.838513 29.2163 0.0902907 30.627C-0.0903145 30.9817 0.0214871 31.1929 0.236493 31.2605C1.01052 31.5624 1.80674 31.8054 2.61876 31.987C2.92837 32.0799 3.60779 31.666 4.59682 31.0747C9.03455 28.456 28.0755 16.1062 29.5376 14.5097C29.5782 14.4724 29.6095 14.4267 29.6314 14.3761C29.6517 14.3255 29.6611 14.2712 29.6579 14.2166C29.6564 14.1623 29.6408 14.1088 29.6157 14.0603C29.5907 14.0118 29.5547 13.9692 29.511 13.9353Z" fill="url(#paint0_linear_3965_8551)"/>
<path d="M29.511 13.9353C27.708 13.212 25.8191 12.7207 23.888 12.4739C22.4775 12.2543 20.8169 12.0346 19.4151 11.8572C20.7653 9.98197 24.7636 5.23464 25.4345 4.07737C25.6237 3.76482 25.264 3.32557 24.9966 3.0637C23.5002 1.49252 20.6105 0.901216 18.3916 0.563328C17.1188 0.360595 11.8038 -0.28139 10.9008 0.14097C9.81717 0.647803 1.80174 12.4739 1.56093 14.2732C1.56093 14.5773 1.66413 14.6955 1.96514 14.8053C3.22938 15.2615 8.93135 15.971 10.2042 16.2667C8.48413 19.2232 0.838513 29.2163 0.0902907 30.627C-0.0903145 30.9817 0.0214871 31.1929 0.236493 31.2605C1.01052 31.5624 1.80674 31.8054 2.61876 31.987C2.92837 32.0799 3.60779 31.666 4.59682 31.0747C9.03455 28.456 28.0755 16.1062 29.5376 14.5097C29.5782 14.4724 29.6095 14.4267 29.6314 14.3761C29.6517 14.3255 29.6611 14.2712 29.6579 14.2166C29.6564 14.1623 29.6408 14.1088 29.6157 14.0603C29.5907 14.0118 29.5547 13.9692 29.511 13.9353ZM11.0298 24.0719C3.71958 28.8108 1.25133 30.1961 1.16533 30.2553C2.34356 28.4898 9.66237 18.6404 10.918 16.2836C10.9394 16.2378 10.951 16.1885 10.951 16.1378C10.951 16.0879 10.9388 16.038 10.9166 15.9929C10.8944 15.9471 10.8622 15.9078 10.822 15.876C10.7826 15.8443 10.736 15.8218 10.6858 15.8105C9.82578 15.5064 3.5648 14.8476 2.08556 14.3323C2.27476 12.7611 10.0838 0.884322 11.0298 0.411278C11.9758 -0.0617662 21.1523 1.01103 22.8731 2.21898C21.9693 3.95066 16.9812 10.0158 16.1728 11.4264C16.0094 11.7136 15.9578 11.9924 16.276 12.0684C16.5942 12.1445 24.6776 13.0736 26.4415 13.6396C24.2914 15.4051 13.4379 22.4838 11.0298 24.0381V24.0719Z" fill="#202025"/>
<defs>
<linearGradient id="paint0_linear_3965_8551" x1="14.8293" y1="0" x2="14.8293" y2="32" gradientUnits="userSpaceOnUse">
<stop stop-color="#DAFF73"/>
<stop offset="1" stop-color="#FFA6D6"/>
</linearGradient>
</defs>
</svg>
