<svg width="1647" height="250" viewBox="0 0 1647 250" fill="none" xmlns="http://www.w3.org/2000/svg">
<path d="M230.014 108.869C215.962 103.219 201.239 99.3805 186.188 97.4523C175.194 95.7365 162.251 94.0206 151.325 92.6348C161.849 77.9841 193.013 40.8956 198.241 31.8545C199.716 29.4127 196.913 25.981 194.829 23.9352C183.165 11.6603 160.642 7.04075 143.348 4.401C133.427 2.81715 92.0013 -2.19836 84.9629 1.10133C76.5169 5.06096 14.0431 97.4523 12.1662 111.509C12.1662 113.885 12.9706 114.809 15.3167 115.667C25.1704 119.23 69.6126 124.774 79.5334 127.084C66.127 150.181 6.53553 228.252 0.703743 239.273C-0.703929 242.045 0.167475 243.695 1.84328 244.223C7.87616 246.582 14.0821 248.48 20.4111 249.898C22.8242 250.624 28.1198 247.39 35.8285 242.771C70.417 222.313 218.826 125.83 230.221 113.357C230.538 113.065 230.782 112.709 230.953 112.313C231.111 111.918 231.184 111.493 231.16 111.067C231.148 110.643 231.026 110.225 230.831 109.846C230.636 109.467 230.355 109.134 230.014 108.869Z" fill="url(#paint0_linear_978_46363)"/>
<path d="M230.014 108.869C215.962 103.219 201.239 99.3805 186.188 97.4523C175.194 95.7365 162.251 94.0206 151.325 92.6348C161.849 77.9841 193.013 40.8956 198.241 31.8545C199.716 29.4127 196.913 25.981 194.829 23.9352C183.165 11.6603 160.642 7.04075 143.348 4.401C133.427 2.81715 92.0013 -2.19836 84.9629 1.10133C76.5169 5.06096 14.0431 97.4523 12.1662 111.509C12.1662 113.885 12.9706 114.809 15.3167 115.667C25.1704 119.23 69.6126 124.774 79.5334 127.084C66.127 150.181 6.53553 228.252 0.703743 239.273C-0.703929 242.045 0.167475 243.695 1.84328 244.223C7.87616 246.582 14.0821 248.48 20.4111 249.898C22.8242 250.624 28.1198 247.39 35.8285 242.771C70.417 222.313 218.826 125.83 230.221 113.357C230.538 113.065 230.782 112.709 230.953 112.313C231.111 111.918 231.184 111.493 231.16 111.067C231.148 110.643 231.026 110.225 230.831 109.846C230.636 109.467 230.355 109.134 230.014 108.869ZM85.9684 188.062C28.9912 225.084 9.75309 235.907 9.08277 236.369C18.2662 222.577 75.3104 145.628 85.097 127.216C85.264 126.858 85.3542 126.473 85.3542 126.077C85.3542 125.687 85.2591 125.297 85.0861 124.944C84.913 124.587 84.662 124.279 84.3488 124.031C84.0416 123.784 83.6785 123.607 83.2873 123.52C76.5841 121.144 27.7848 115.997 16.2552 111.971C17.73 99.6961 78.5949 6.90876 85.9684 3.21311C93.3419 -0.482548 164.865 7.89869 178.278 17.3358C171.233 30.8645 132.355 78.2481 126.054 89.2691C124.78 91.5129 124.378 93.6907 126.858 94.2846C129.338 94.8785 192.342 102.138 206.09 106.559C189.332 120.352 104.737 175.655 85.9684 187.798V188.062Z" fill="black"/>
<path d="M186.033 98.4404L186.047 98.4425L186.06 98.4442C200.977 100.355 215.568 104.153 229.498 109.74C229.684 109.903 229.834 110.095 229.941 110.303C230.079 110.571 230.153 110.843 230.16 111.096L230.161 111.11L230.161 111.125C230.177 111.395 230.132 111.669 230.029 111.929C229.91 112.202 229.746 112.435 229.544 112.621L229.512 112.65L229.483 112.682C228.137 114.156 224.657 116.969 219.42 120.857C214.216 124.719 207.359 129.584 199.335 135.141C183.287 146.253 162.594 160.118 141.172 174.234C98.3214 202.472 52.5904 231.695 35.3194 241.91L35.3144 241.913L34.7271 242.265C31.1178 244.429 28.103 246.236 25.6866 247.445C24.4145 248.081 23.3489 248.53 22.4793 248.779C21.5886 249.033 21.0288 249.04 20.6992 248.94L20.6648 248.93L20.6298 248.922C14.3504 247.515 8.19315 245.632 2.20745 243.291L2.17598 243.279L2.14376 243.269C1.55225 243.082 1.20993 242.745 1.07378 242.298C0.926316 241.814 0.955487 240.989 1.59161 239.733C3.01443 237.048 7.77706 230.176 14.4086 220.925C19.5653 213.731 25.8147 205.15 32.4198 196.08C34.2859 193.517 36.1804 190.916 38.0867 188.295C55.3713 164.538 73.6621 139.191 80.3983 127.586L81.077 126.416L79.7601 126.11C75.9232 125.216 67.0081 123.849 56.9607 122.308C53.8933 121.838 50.7203 121.351 47.5541 120.857C40.7645 119.798 33.9871 118.7 28.2946 117.646C22.5758 116.587 18.0324 115.585 15.6584 114.727C14.5315 114.315 13.9668 113.949 13.6508 113.543C13.3592 113.168 13.1741 112.62 13.1664 111.577C13.3975 109.992 14.498 107.175 16.3843 103.332C18.2737 99.4834 20.8877 94.729 24.0082 89.389C30.2478 78.7113 38.4854 65.7385 46.9331 53.0737C55.3805 40.4091 64.0294 28.0655 71.0894 18.646C74.6205 13.9348 77.746 9.966 80.2454 7.05747C81.4959 5.6023 82.5795 4.42455 83.4717 3.55586C84.3919 2.66001 85.0263 2.17608 85.3874 2.00677C86.1014 1.67206 87.3712 1.40023 89.1813 1.22619C90.9599 1.05515 93.157 0.98674 95.6536 1.0021C100.645 1.0328 106.764 1.39759 112.991 1.91638C125.446 2.95396 138.257 4.60098 143.19 5.38851L143.197 5.38955C151.829 6.70718 161.719 8.51234 170.889 11.5056C180.074 14.5033 188.438 18.6616 194.104 24.624L194.116 24.6366L194.128 24.6488C195.145 25.6467 196.285 26.9352 196.992 28.2266C197.72 29.5555 197.837 30.5894 197.385 31.3375L197.38 31.3456L197.375 31.3538C196.107 33.5473 193.221 37.5077 189.391 42.4964C185.576 47.4656 180.867 53.4005 175.987 59.5174C174.715 61.1116 173.431 62.7185 172.149 64.324C163.602 75.0225 155.105 85.6586 150.513 92.0513L149.533 93.4155L151.199 93.6268C162.123 95.0124 175.055 96.7268 186.033 98.4404ZM86.5132 188.9L86.9684 188.605V188.342C96.7152 182.031 122.148 165.43 147.338 148.629C172.906 131.576 198.297 114.268 206.725 107.332L208.139 106.168L206.396 105.607C202.878 104.476 196.29 103.183 188.423 101.873C180.531 100.559 171.278 99.2173 162.385 97.996C153.49 96.7744 144.949 95.6727 138.479 94.8395L137.97 94.774C134.957 94.3861 132.422 94.0596 130.542 93.8099C128.516 93.5407 127.336 93.3707 127.091 93.3121C126.608 93.1964 126.369 93.0289 126.249 92.896C126.137 92.7718 126.061 92.6038 126.047 92.3397C126.013 91.7426 126.306 90.8513 126.922 89.7652C128.46 87.0742 132.03 82.0991 136.682 75.8816C140.303 71.0411 144.552 65.4848 148.953 59.7291C150.187 58.1145 151.434 56.4843 152.682 54.8497C158.375 47.3926 164.099 39.8483 168.841 33.3207C173.569 26.8123 177.364 21.256 179.165 17.7977L179.569 17.0215L178.853 16.518C177.06 15.2562 174.369 14.0567 171.09 12.9228C167.793 11.783 163.835 10.6871 159.463 9.6549C150.716 7.59033 140.254 5.76827 129.994 4.35897C119.734 2.9496 109.654 1.95021 101.668 1.53493C97.677 1.32738 94.1923 1.26484 91.4622 1.37259C90.0979 1.42645 88.9058 1.5234 87.925 1.66999C86.9659 1.81333 86.1266 2.01522 85.5203 2.31911C84.8875 2.63629 84.1113 3.33583 83.2656 4.21572C82.3875 5.1293 81.3355 6.34503 80.1408 7.81257C77.7498 10.7497 74.7485 14.7436 71.3605 19.4557C64.5824 28.8828 56.2276 41.2253 48.0605 53.8311C39.8936 66.4366 31.9067 79.3171 25.8663 89.8203C22.8468 95.0705 20.3072 99.738 18.4735 103.486C17.5568 105.359 16.8109 107.014 16.2686 108.404C15.7333 109.776 15.3702 110.954 15.2624 111.852L15.1665 112.65L15.9256 112.915C18.8984 113.953 24.1908 115.041 30.4806 116.125C36.7964 117.214 44.1987 118.31 51.4385 119.354C53.303 119.623 55.1565 119.888 56.9781 120.148C62.2356 120.901 67.2277 121.615 71.4544 122.267C74.2994 122.707 76.788 123.116 78.7704 123.489C80.7747 123.867 82.1981 124.195 82.9532 124.462L83.01 124.483L83.0688 124.496C83.3097 124.55 83.5333 124.658 83.7218 124.81L83.7274 124.815C83.9283 124.974 84.0815 125.164 84.186 125.38L84.1883 125.385C84.2978 125.608 84.3542 125.848 84.3542 126.077C84.3542 126.312 84.3026 126.546 84.2006 126.771C79.3296 135.922 62.6901 159.67 46.0502 182.943C39.9915 191.417 33.9372 199.822 28.4666 207.417C18.9352 220.649 11.1754 231.422 8.25039 235.815L9.65023 237.193C9.64427 237.197 9.65976 237.186 9.72027 237.15C9.77331 237.117 9.84608 237.074 9.94094 237.018C10.1198 236.911 10.3673 236.766 10.6901 236.576L10.7488 236.542C11.4507 236.129 12.4815 235.523 13.8777 234.692C16.6701 233.032 20.9225 230.476 26.9344 226.778C38.9581 219.381 58.0189 207.415 86.5132 188.9ZM85.98 127.685L85.9922 127.662L86.0031 127.639C86.2286 127.156 86.3542 126.627 86.3542 126.077C86.3542 125.527 86.2208 124.987 85.9846 124.505C85.7437 124.009 85.3968 123.587 84.9739 123.251C84.5647 122.922 84.0845 122.684 83.5671 122.558C82.6398 122.237 81.0942 121.892 79.1402 121.524C77.1258 121.145 74.6122 120.731 71.7595 120.291C67.5208 119.637 62.5121 118.92 57.2506 118.167C55.4315 117.907 53.582 117.642 51.7238 117.374C44.4846 116.331 37.1064 115.237 30.8202 114.154C25.0833 113.166 20.3221 112.196 17.4058 111.296C17.5527 110.723 17.7921 110.001 18.1318 109.131C18.6466 107.811 19.3668 106.21 20.2699 104.365C22.0758 100.674 24.5908 96.0498 27.6 90.8173C33.617 80.355 41.5836 67.5062 49.739 54.9186C57.8942 42.3312 66.2303 30.0168 72.9843 20.6232C76.3623 15.925 79.3373 11.9677 81.6919 9.07521C82.8701 7.62794 83.8832 6.45925 84.7075 5.60164C85.5642 4.71032 86.1276 4.25188 86.4165 4.1071C86.7318 3.94903 87.3154 3.78332 88.2206 3.64802C89.1041 3.51598 90.2179 3.42326 91.5411 3.37104C94.1862 3.26664 97.6038 3.32628 101.564 3.53223C109.482 3.94394 119.504 4.93674 129.722 6.34037C139.941 7.74406 150.337 9.55579 159.003 11.6014C163.337 12.6243 167.225 13.7026 170.436 14.813C173.193 15.7663 175.403 16.7272 176.96 17.671C175.095 21.0199 171.6 26.1199 167.223 32.1453C162.497 38.6514 156.786 46.1785 151.092 53.636C149.847 55.2671 148.602 56.8951 147.369 58.5081C142.966 64.2655 138.709 69.8336 135.081 74.6835C130.45 80.8726 126.798 85.9532 125.186 88.7727L125.184 88.7754C124.528 89.932 123.983 91.2506 124.05 92.4513C124.085 93.0864 124.294 93.7144 124.764 94.2357C125.227 94.7484 125.868 95.0758 126.625 95.2571C127 95.3469 128.332 95.5338 130.279 95.7925C132.165 96.043 134.707 96.3703 137.72 96.7584L138.223 96.8231C144.694 97.6563 153.227 98.7571 162.113 99.9774C170.999 101.198 180.23 102.537 188.095 103.846C194.735 104.952 200.35 106.028 203.963 106.984C194.398 114.501 170.46 130.804 146.228 146.965C120.643 164.03 94.8064 180.889 85.4252 186.958L84.9684 187.254V187.519C56.7375 205.858 37.8298 217.727 25.8865 225.074C19.883 228.767 15.6392 231.318 12.8554 232.973C12.7246 233.051 12.597 233.127 12.4727 233.201C16.2725 227.768 22.6094 218.97 30.0394 208.655C35.5173 201.051 41.5894 192.621 47.6771 184.106C64.2865 160.876 81.0472 136.965 85.98 127.685Z" stroke="black" stroke-width="2"/>
<path d="M396 176.5L372.5 147.434L427.311 62.5H461.5L466.533 70V189.989H432L423.5 185.5V112.376L449.696 113.862L400.186 189.989H361L315.5 120.5L331.171 112.706V189.989H295.5L288 185.5V62.5H322.727L396 176.5Z" fill="#202025"/>
<path d="M592.165 126.761L570.385 140V62.5H608.5L613.336 70V145.073C613.336 152.118 612.281 158.283 610.169 163.568C608.169 168.852 605.279 173.311 601.5 176.944C597.722 180.577 593.276 183.549 588.164 185.861C583.163 188.063 577.662 189.659 571.661 190.65C565.771 191.641 559.547 192.136 552.99 192.136C546.211 192.136 531.112 191.641 525 190.65C518.888 189.659 511.928 188.063 506.816 185.861C501.815 183.549 497.481 180.577 493.813 176.944C490.146 173.311 487.256 168.852 485.145 163.568C483.144 158.283 482.144 152.118 482.144 145.073L471.375 126.761V62.5H509.5L514.315 70L515.315 126.761C515.315 135.128 516.982 141.513 520.316 145.916C523.65 150.21 528.207 153.182 533.986 154.834C539.876 156.375 546.544 157.146 553.99 157.146C561.214 157.146 567.66 156.375 573.328 154.834C579.107 153.182 583.663 150.21 586.997 145.916C590.442 141.513 592.165 135.128 592.165 126.761Z" fill="#202025"/>
<path d="M749.5 157L741.34 170.999L720.579 141.111V62.5H758.5L763.511 70V189.989H729.34L642.155 105.605L661.156 102.798V189.989H625.5L618 185.5V62.5H651.574L665 75.5L749.5 157Z" fill="#202025"/>
<path d="M915.5 137.5C915.5 148.5 912.5 159.5 905.5 168C898.5 176.5 895.5 179.5 885.598 184.5C875.696 189.5 864 191 853.758 192.136C843.516 193.272 832.5 192.632 819 189.989C805.5 187.347 791.5 177.5 782.5 168.5C782.5 168.5 793.579 167.916 790.245 161.091C786.911 154.155 785.244 146.063 785.244 136.816C785.244 127.568 786.911 119.477 790.245 112.541C793.579 105.605 798.246 99.8255 804.248 95.2017C810.36 90.4678 817.584 86.9449 825.919 84.633C834.365 82.211 843.645 81 853.758 81C865.872 81 876.318 82.6514 885.098 85.9541C893.989 89.2568 896.5 79 902 85.5C907.112 91.555 915 113.5 915.5 122.284H880.5L874.5 117.5C874.5 117.5 884.403 111.964 882.765 110.394C879.431 106.981 875.096 104.394 869.762 102.633C864.428 100.871 853.093 95.9906 845.758 95.9906C836.645 95.9906 831.643 97.4218 824.753 100.284C817.863 103.036 812.528 107.165 808.75 112.669C804.971 118.064 805 120.5 805 128C805 135.5 811.5 144 815.5 146.5C819.5 149 822.863 166.32 829.753 169.182C836.643 171.935 844.645 173.311 853.758 173.311C861.093 173.311 867.372 172.43 872.595 170.669C877.93 168.907 882.264 166.375 885.598 163.072C889.043 159.77 891.544 155.917 893.1 151.513L911.5 131L915.5 137.5Z" fill="#202025"/>
<path d="M956.241 127.238H1041.76V145.568H956.241V127.238ZM1017.5 62.5H1055.5L1060.26 70.5V189.989H1025L1017.5 185.5V62.5ZM915.97 62.5H954L958.908 70.5V189.989H923L916 185.5L915.97 62.5Z" fill="#202025"/>
<path d="M1060.26 145.889L1096.15 152.99C1096.59 156.733 1098.32 160.146 1101.32 163.228C1104.43 166.201 1108.49 168.568 1113.49 170.329C1118.49 171.981 1124.1 172.806 1130.32 172.806C1135.99 172.806 1140.66 172.201 1144.33 170.99C1147.99 169.779 1150.72 168.072 1152.49 165.87C1154.27 163.669 1155.16 161.027 1155.16 157.944C1155.16 154.972 1154.05 152.715 1151.83 151.173C1149.61 149.522 1146.1 148.201 1141.33 147.21C1136.55 146.109 1130.27 145.008 1122.49 143.907C1116.38 143.027 1110.6 141.816 1105.15 140.274C1099.71 138.623 1094.87 136.531 1090.65 133.999C1086.54 131.467 1083.26 128.385 1080.81 124.752C1078.48 121.009 1077.31 116.605 1077.31 111.541C1077.31 105.266 1079.09 99.7612 1082.65 95.0273C1086.31 90.2934 1091.7 86.6054 1098.82 83.9633C1105.93 81.3211 1114.65 80 1124.99 80C1140.55 80 1153.16 68.3946 1161.5 75C1169.95 81.4953 1176.5 100.5 1174 116.825H1151.49C1151.05 110.33 1148.27 105.651 1143.16 102.789C1138.16 99.9264 1131.82 98.4952 1124.16 98.4952C1117.04 98.4952 1111.15 99.541 1106.49 101.633C1101.93 103.724 1099.65 107.302 1099.65 112.367C1099.65 114.348 1100.21 116.11 1101.32 117.651C1102.43 119.082 1104.32 120.348 1106.99 121.449C1109.65 122.55 1113.26 123.596 1117.82 124.587C1122.38 125.577 1128.05 126.568 1134.82 127.559C1141.16 128.44 1146.88 129.651 1151.99 131.192C1157.22 132.623 1164.83 121.578 1168.5 124C1172.28 126.312 1175 131.192 1176.67 136.476C1178.34 141.761 1179 142.5 1179.5 153C1180 163.5 1175.28 171.43 1171.83 176.274C1168.5 181.008 1163.27 184.696 1156.16 187.338C1149.16 189.98 1140.05 191.301 1128.82 191.301C1120.82 191.301 1116.3 190.649 1107.65 188.824C1099 187 1087 182.5 1077.5 175.5C1068 168.5 1070.38 168.788 1067.6 165.375C1064.82 161.962 1062.82 158.549 1061.6 155.137C1060.48 151.724 1060.04 148.641 1060.26 145.889Z" fill="#202025"/>
<path d="M1227 189.989L1219.5 185.5L1165.5 62.5H1209L1214 70L1258.11 177.769L1221.5 177.935L1266.4 62.5H1303L1308 70L1349.8 177.935L1311.5 177.769L1360 62.5H1402.5L1406.5 71.5L1357.14 189.989H1319L1311.5 185.5L1279.5 102.5L1300.96 97.3484L1264.78 189.989H1227Z" fill="#202025"/>
<path d="M1421.77 166.705V148.375H1493.12V166.705H1421.77ZM1376.5 189.989L1369.5 185.5L1427.5 62.5H1462L1471.5 69.5L1529 189.989H1490L1478.5 185.5L1463.5 154L1452.28 93.7154H1462.95L1418.94 189.989H1376.5Z" fill="#202025"/>
<path d="M1555.64 155.311V137.807H1601.99C1607.88 137.807 1612.54 136.265 1615.99 133.183C1619.43 129.99 1621.16 122.587 1621.16 116.972C1621.16 111.137 1619.43 106.679 1615.99 103.596C1612.54 100.513 1607.88 98.9722 1601.99 98.9722H1558.31V189.989H1525.5L1516.5 178.5L1536.14 83.1468L1601.99 73.1468C1607.99 73.1468 1605 68.5 1611 68C1617 67.5 1625.5 72.5 1630.5 76.5C1635.5 80.5 1639 83.1468 1643.5 92C1648 100.853 1646.5 111 1646 116.972C1645.5 122.944 1642.22 131.807 1639.99 136.32C1637.77 140.834 1634.66 144.522 1630.66 147.384C1626.77 150.137 1622.16 152.173 1616.82 153.495C1611.6 154.706 1605.99 155.311 1599.99 155.311H1555.64Z" fill="#202025"/>
<mask id="path-4-outside-1_978_46363" maskUnits="userSpaceOnUse" x="288.233" y="60.4932" width="1354" height="128" fill="black">
<rect fill="white" x="288.233" y="60.4932" width="1354" height="128"/>
<path d="M380.084 166.584H369.582L431.595 70.6399H453.766V177.483H431.595V99.8689L436.929 101.355L387.419 177.483H362.58L313.07 101.685L318.404 100.199V177.483H296.233V70.6399H318.404L380.084 166.584Z"/>
<path d="M578.398 130.254V70.6399H600.569V132.566C600.569 139.612 599.513 145.777 597.402 151.061C595.401 156.345 592.512 160.804 588.733 164.437C584.955 168.07 580.509 171.042 575.397 173.354C570.396 175.556 564.895 177.152 558.894 178.143C553.004 179.134 546.78 179.629 540.223 179.629C533.444 179.629 526.998 179.134 520.886 178.143C514.773 177.152 509.161 175.556 504.049 173.354C499.048 171.042 494.714 168.07 491.046 164.437C487.379 160.804 484.489 156.345 482.378 151.061C480.377 145.777 479.377 139.612 479.377 132.566V70.6399H501.548V130.254C501.548 138.621 503.215 145.006 506.549 149.41C509.883 153.703 514.44 156.676 520.219 158.327C526.109 159.868 532.777 160.639 540.223 160.639C547.447 160.639 553.893 159.868 559.561 158.327C565.34 156.676 569.896 153.703 573.23 149.41C576.675 145.006 578.398 138.621 578.398 130.254Z"/>
<path d="M735.574 155.685L728.573 158.492V70.6399H750.744V177.483H728.573L641.388 93.0984L648.389 90.2911V177.483H626.218V70.6399H648.389L735.574 155.685Z"/>
<path d="M902.337 139.006C901.337 147.593 898.281 154.914 893.169 160.969C888.056 167.024 881.11 171.648 872.331 174.84C863.551 178.033 853.105 179.629 840.991 179.629C830.878 179.629 821.598 178.473 813.152 176.162C804.817 173.85 797.593 170.382 791.48 165.758C785.479 161.134 780.812 155.41 777.478 148.584C774.144 141.648 772.476 133.557 772.476 124.309C772.476 115.061 774.144 106.97 777.478 100.034C780.812 93.0984 785.479 87.3186 791.48 82.6948C797.593 77.9609 804.817 74.438 813.152 72.1261C821.598 69.7042 830.878 68.4932 840.991 68.4932C853.105 68.4932 863.551 70.1445 872.331 73.4472C881.222 76.7499 888.223 81.4838 893.335 87.6489C898.447 93.7039 901.448 101.08 902.337 109.777H880.333C878.888 105.153 876.443 101.19 872.998 97.8873C869.664 94.4745 865.329 91.8874 859.995 90.1259C854.66 88.3645 848.326 87.4838 840.991 87.4838C831.878 87.4838 823.876 88.9149 816.986 91.7773C810.096 94.5295 804.761 98.6579 800.983 104.162C797.204 109.557 795.315 116.272 795.315 124.309C795.315 132.235 797.204 138.896 800.983 144.29C804.761 149.685 810.096 153.813 816.986 156.676C823.876 159.428 831.878 160.804 840.991 160.804C848.326 160.804 854.605 159.923 859.828 158.162C865.163 156.4 869.497 153.868 872.831 150.566C876.276 147.263 878.777 143.41 880.333 139.006H902.337Z"/>
<path d="M943.473 114.731H1028.99V133.061H943.473V114.731ZM1025.32 70.6399H1047.5V177.483H1025.32V70.6399ZM923.969 70.6399H946.141V177.483H923.969V70.6399Z"/>
<path d="M1065.92 141.483H1088.43C1088.87 145.226 1090.59 148.639 1093.59 151.721C1096.71 154.694 1100.76 157.061 1105.76 158.822C1110.76 160.474 1116.38 161.299 1122.6 161.299C1128.27 161.299 1132.94 160.694 1136.6 159.483C1140.27 158.272 1142.99 156.565 1144.77 154.364C1146.55 152.162 1147.44 149.52 1147.44 146.437C1147.44 143.465 1146.33 141.208 1144.1 139.667C1141.88 138.015 1138.38 136.694 1133.6 135.703C1128.82 134.602 1122.54 133.502 1114.76 132.401C1108.65 131.52 1102.87 130.309 1097.43 128.768C1091.98 127.116 1087.15 125.025 1082.92 122.492C1078.81 119.96 1075.53 116.878 1073.09 113.245C1070.76 109.502 1069.59 105.098 1069.59 100.034C1069.59 93.7589 1071.37 88.2544 1074.92 83.5205C1078.59 78.7866 1083.98 75.0986 1091.09 72.4564C1098.21 69.8142 1106.93 68.4932 1117.27 68.4932C1132.82 68.4932 1144.77 71.7959 1153.11 78.4013C1161.55 84.8966 1165.66 93.869 1165.44 105.318H1143.77C1143.33 98.8231 1140.55 94.1442 1135.44 91.2819C1130.43 88.4195 1124.1 86.9883 1116.43 86.9883C1109.32 86.9883 1103.43 88.0342 1098.76 90.1259C1094.2 92.2176 1091.93 95.7956 1091.93 100.86C1091.93 102.841 1092.48 104.603 1093.59 106.144C1094.7 107.575 1096.59 108.841 1099.26 109.942C1101.93 111.043 1105.54 112.089 1110.1 113.08C1114.65 114.071 1120.32 115.061 1127.1 116.052C1133.44 116.933 1139.16 118.144 1144.27 119.685C1149.49 121.116 1153.94 123.043 1157.61 125.465C1161.39 127.777 1164.28 130.749 1166.28 134.382C1168.28 138.015 1169.28 142.474 1169.28 147.758C1169.28 154.254 1167.55 159.923 1164.11 164.767C1160.77 169.501 1155.55 173.189 1148.44 175.831C1141.44 178.473 1132.32 179.795 1121.1 179.795C1113.1 179.795 1106.04 178.969 1099.93 177.317C1093.82 175.556 1088.54 173.244 1084.09 170.382C1079.65 167.519 1076.03 164.382 1073.26 160.969C1070.48 157.556 1068.48 154.143 1067.25 150.731C1066.14 147.318 1065.7 144.235 1065.92 141.483Z"/>
<path d="M1224.84 177.483L1179.33 70.6399H1203.84L1242.35 165.263L1235.18 165.428L1271.85 70.6399H1297.36L1334.03 165.428L1326.87 165.263L1365.37 70.6399H1389.38L1344.37 177.483H1317.2L1281.19 84.8416H1288.19L1252.02 177.483H1224.84Z"/>
<path d="M1409 154.199V135.868H1480.35V154.199H1409ZM1382.16 177.483L1432.84 70.6399H1456.85L1508.02 177.483H1483.85L1439.51 81.2086H1450.18L1406.17 177.483H1382.16Z"/>
<path d="M1542.88 142.804V125.3H1592.22C1598.11 125.3 1602.78 123.759 1606.22 120.676C1609.67 117.483 1611.39 113.08 1611.39 107.465C1611.39 101.63 1609.67 97.1717 1606.22 94.0892C1602.78 91.0066 1598.11 89.4654 1592.22 89.4654H1545.54V177.483H1523.37V70.6399H1590.22C1596.22 70.6399 1601.83 71.3555 1607.06 72.7867C1612.39 74.2179 1617 76.4197 1620.89 79.3921C1624.89 82.3645 1628 86.1627 1630.23 90.7865C1632.45 95.4103 1633.56 100.97 1633.56 107.465C1633.56 113.85 1632.45 119.3 1630.23 123.814C1628 128.327 1624.89 132.015 1620.89 134.878C1617 137.63 1612.39 139.667 1607.06 140.988C1601.83 142.199 1596.22 142.804 1590.22 142.804H1542.88Z"/>
</mask>
<path d="M380.084 166.584H369.582L431.595 70.6399H453.766V177.483H431.595V99.8689L436.929 101.355L387.419 177.483H362.58L313.07 101.685L318.404 100.199V177.483H296.233V70.6399H318.404L380.084 166.584Z" fill="url(#paint1_linear_978_46363)"/>
<path d="M578.398 130.254V70.6399H600.569V132.566C600.569 139.612 599.513 145.777 597.402 151.061C595.401 156.345 592.512 160.804 588.733 164.437C584.955 168.07 580.509 171.042 575.397 173.354C570.396 175.556 564.895 177.152 558.894 178.143C553.004 179.134 546.78 179.629 540.223 179.629C533.444 179.629 526.998 179.134 520.886 178.143C514.773 177.152 509.161 175.556 504.049 173.354C499.048 171.042 494.714 168.07 491.046 164.437C487.379 160.804 484.489 156.345 482.378 151.061C480.377 145.777 479.377 139.612 479.377 132.566V70.6399H501.548V130.254C501.548 138.621 503.215 145.006 506.549 149.41C509.883 153.703 514.44 156.676 520.219 158.327C526.109 159.868 532.777 160.639 540.223 160.639C547.447 160.639 553.893 159.868 559.561 158.327C565.34 156.676 569.896 153.703 573.23 149.41C576.675 145.006 578.398 138.621 578.398 130.254Z" fill="url(#paint2_linear_978_46363)"/>
<path d="M735.574 155.685L728.573 158.492V70.6399H750.744V177.483H728.573L641.388 93.0984L648.389 90.2911V177.483H626.218V70.6399H648.389L735.574 155.685Z" fill="url(#paint3_linear_978_46363)"/>
<path d="M902.337 139.006C901.337 147.593 898.281 154.914 893.169 160.969C888.056 167.024 881.11 171.648 872.331 174.84C863.551 178.033 853.105 179.629 840.991 179.629C830.878 179.629 821.598 178.473 813.152 176.162C804.817 173.85 797.593 170.382 791.48 165.758C785.479 161.134 780.812 155.41 777.478 148.584C774.144 141.648 772.476 133.557 772.476 124.309C772.476 115.061 774.144 106.97 777.478 100.034C780.812 93.0984 785.479 87.3186 791.48 82.6948C797.593 77.9609 804.817 74.438 813.152 72.1261C821.598 69.7042 830.878 68.4932 840.991 68.4932C853.105 68.4932 863.551 70.1445 872.331 73.4472C881.222 76.7499 888.223 81.4838 893.335 87.6489C898.447 93.7039 901.448 101.08 902.337 109.777H880.333C878.888 105.153 876.443 101.19 872.998 97.8873C869.664 94.4745 865.329 91.8874 859.995 90.1259C854.66 88.3645 848.326 87.4838 840.991 87.4838C831.878 87.4838 823.876 88.9149 816.986 91.7773C810.096 94.5295 804.761 98.6579 800.983 104.162C797.204 109.557 795.315 116.272 795.315 124.309C795.315 132.235 797.204 138.896 800.983 144.29C804.761 149.685 810.096 153.813 816.986 156.676C823.876 159.428 831.878 160.804 840.991 160.804C848.326 160.804 854.605 159.923 859.828 158.162C865.163 156.4 869.497 153.868 872.831 150.566C876.276 147.263 878.777 143.41 880.333 139.006H902.337Z" fill="url(#paint4_linear_978_46363)"/>
<path d="M943.473 114.731H1028.99V133.061H943.473V114.731ZM1025.32 70.6399H1047.5V177.483H1025.32V70.6399ZM923.969 70.6399H946.141V177.483H923.969V70.6399Z" fill="url(#paint5_linear_978_46363)"/>
<path d="M1065.92 141.483H1088.43C1088.87 145.226 1090.59 148.639 1093.59 151.721C1096.71 154.694 1100.76 157.061 1105.76 158.822C1110.76 160.474 1116.38 161.299 1122.6 161.299C1128.27 161.299 1132.94 160.694 1136.6 159.483C1140.27 158.272 1142.99 156.565 1144.77 154.364C1146.55 152.162 1147.44 149.52 1147.44 146.437C1147.44 143.465 1146.33 141.208 1144.1 139.667C1141.88 138.015 1138.38 136.694 1133.6 135.703C1128.82 134.602 1122.54 133.502 1114.76 132.401C1108.65 131.52 1102.87 130.309 1097.43 128.768C1091.98 127.116 1087.15 125.025 1082.92 122.492C1078.81 119.96 1075.53 116.878 1073.09 113.245C1070.76 109.502 1069.59 105.098 1069.59 100.034C1069.59 93.7589 1071.37 88.2544 1074.92 83.5205C1078.59 78.7866 1083.98 75.0986 1091.09 72.4564C1098.21 69.8142 1106.93 68.4932 1117.27 68.4932C1132.82 68.4932 1144.77 71.7959 1153.11 78.4013C1161.55 84.8966 1165.66 93.869 1165.44 105.318H1143.77C1143.33 98.8231 1140.55 94.1442 1135.44 91.2819C1130.43 88.4195 1124.1 86.9883 1116.43 86.9883C1109.32 86.9883 1103.43 88.0342 1098.76 90.1259C1094.2 92.2176 1091.93 95.7956 1091.93 100.86C1091.93 102.841 1092.48 104.603 1093.59 106.144C1094.7 107.575 1096.59 108.841 1099.26 109.942C1101.93 111.043 1105.54 112.089 1110.1 113.08C1114.65 114.071 1120.32 115.061 1127.1 116.052C1133.44 116.933 1139.16 118.144 1144.27 119.685C1149.49 121.116 1153.94 123.043 1157.61 125.465C1161.39 127.777 1164.28 130.749 1166.28 134.382C1168.28 138.015 1169.28 142.474 1169.28 147.758C1169.28 154.254 1167.55 159.923 1164.11 164.767C1160.77 169.501 1155.55 173.189 1148.44 175.831C1141.44 178.473 1132.32 179.795 1121.1 179.795C1113.1 179.795 1106.04 178.969 1099.93 177.317C1093.82 175.556 1088.54 173.244 1084.09 170.382C1079.65 167.519 1076.03 164.382 1073.26 160.969C1070.48 157.556 1068.48 154.143 1067.25 150.731C1066.14 147.318 1065.7 144.235 1065.92 141.483Z" fill="url(#paint6_linear_978_46363)"/>
<path d="M1224.84 177.483L1179.33 70.6399H1203.84L1242.35 165.263L1235.18 165.428L1271.85 70.6399H1297.36L1334.03 165.428L1326.87 165.263L1365.37 70.6399H1389.38L1344.37 177.483H1317.2L1281.19 84.8416H1288.19L1252.02 177.483H1224.84Z" fill="url(#paint7_linear_978_46363)"/>
<path d="M1409 154.199V135.868H1480.35V154.199H1409ZM1382.16 177.483L1432.84 70.6399H1456.85L1508.02 177.483H1483.85L1439.51 81.2086H1450.18L1406.17 177.483H1382.16Z" fill="url(#paint8_linear_978_46363)"/>
<path d="M1542.88 142.804V125.3H1592.22C1598.11 125.3 1602.78 123.759 1606.22 120.676C1609.67 117.483 1611.39 113.08 1611.39 107.465C1611.39 101.63 1609.67 97.1717 1606.22 94.0892C1602.78 91.0066 1598.11 89.4654 1592.22 89.4654H1545.54V177.483H1523.37V70.6399H1590.22C1596.22 70.6399 1601.83 71.3555 1607.06 72.7867C1612.39 74.2179 1617 76.4197 1620.89 79.3921C1624.89 82.3645 1628 86.1627 1630.23 90.7865C1632.45 95.4103 1633.56 100.97 1633.56 107.465C1633.56 113.85 1632.45 119.3 1630.23 123.814C1628 128.327 1624.89 132.015 1620.89 134.878C1617 137.63 1612.39 139.667 1607.06 140.988C1601.83 142.199 1596.22 142.804 1590.22 142.804H1542.88Z" fill="url(#paint9_linear_978_46363)"/>
<path d="M380.084 166.584H369.582L431.595 70.6399H453.766V177.483H431.595V99.8689L436.929 101.355L387.419 177.483H362.58L313.07 101.685L318.404 100.199V177.483H296.233V70.6399H318.404L380.084 166.584Z" stroke="#202025" stroke-width="16" mask="url(#path-4-outside-1_978_46363)"/>
<path d="M578.398 130.254V70.6399H600.569V132.566C600.569 139.612 599.513 145.777 597.402 151.061C595.401 156.345 592.512 160.804 588.733 164.437C584.955 168.07 580.509 171.042 575.397 173.354C570.396 175.556 564.895 177.152 558.894 178.143C553.004 179.134 546.78 179.629 540.223 179.629C533.444 179.629 526.998 179.134 520.886 178.143C514.773 177.152 509.161 175.556 504.049 173.354C499.048 171.042 494.714 168.07 491.046 164.437C487.379 160.804 484.489 156.345 482.378 151.061C480.377 145.777 479.377 139.612 479.377 132.566V70.6399H501.548V130.254C501.548 138.621 503.215 145.006 506.549 149.41C509.883 153.703 514.44 156.676 520.219 158.327C526.109 159.868 532.777 160.639 540.223 160.639C547.447 160.639 553.893 159.868 559.561 158.327C565.34 156.676 569.896 153.703 573.23 149.41C576.675 145.006 578.398 138.621 578.398 130.254Z" stroke="#202025" stroke-width="16" mask="url(#path-4-outside-1_978_46363)"/>
<path d="M735.574 155.685L728.573 158.492V70.6399H750.744V177.483H728.573L641.388 93.0984L648.389 90.2911V177.483H626.218V70.6399H648.389L735.574 155.685Z" stroke="#202025" stroke-width="16" mask="url(#path-4-outside-1_978_46363)"/>
<path d="M902.337 139.006C901.337 147.593 898.281 154.914 893.169 160.969C888.056 167.024 881.11 171.648 872.331 174.84C863.551 178.033 853.105 179.629 840.991 179.629C830.878 179.629 821.598 178.473 813.152 176.162C804.817 173.85 797.593 170.382 791.48 165.758C785.479 161.134 780.812 155.41 777.478 148.584C774.144 141.648 772.476 133.557 772.476 124.309C772.476 115.061 774.144 106.97 777.478 100.034C780.812 93.0984 785.479 87.3186 791.48 82.6948C797.593 77.9609 804.817 74.438 813.152 72.1261C821.598 69.7042 830.878 68.4932 840.991 68.4932C853.105 68.4932 863.551 70.1445 872.331 73.4472C881.222 76.7499 888.223 81.4838 893.335 87.6489C898.447 93.7039 901.448 101.08 902.337 109.777H880.333C878.888 105.153 876.443 101.19 872.998 97.8873C869.664 94.4745 865.329 91.8874 859.995 90.1259C854.66 88.3645 848.326 87.4838 840.991 87.4838C831.878 87.4838 823.876 88.9149 816.986 91.7773C810.096 94.5295 804.761 98.6579 800.983 104.162C797.204 109.557 795.315 116.272 795.315 124.309C795.315 132.235 797.204 138.896 800.983 144.29C804.761 149.685 810.096 153.813 816.986 156.676C823.876 159.428 831.878 160.804 840.991 160.804C848.326 160.804 854.605 159.923 859.828 158.162C865.163 156.4 869.497 153.868 872.831 150.566C876.276 147.263 878.777 143.41 880.333 139.006H902.337Z" stroke="#202025" stroke-width="16" mask="url(#path-4-outside-1_978_46363)"/>
<path d="M943.473 114.731H1028.99V133.061H943.473V114.731ZM1025.32 70.6399H1047.5V177.483H1025.32V70.6399ZM923.969 70.6399H946.141V177.483H923.969V70.6399Z" stroke="#202025" stroke-width="16" mask="url(#path-4-outside-1_978_46363)"/>
<path d="M1065.92 141.483H1088.43C1088.87 145.226 1090.59 148.639 1093.59 151.721C1096.71 154.694 1100.76 157.061 1105.76 158.822C1110.76 160.474 1116.38 161.299 1122.6 161.299C1128.27 161.299 1132.94 160.694 1136.6 159.483C1140.27 158.272 1142.99 156.565 1144.77 154.364C1146.55 152.162 1147.44 149.52 1147.44 146.437C1147.44 143.465 1146.33 141.208 1144.1 139.667C1141.88 138.015 1138.38 136.694 1133.6 135.703C1128.82 134.602 1122.54 133.502 1114.76 132.401C1108.65 131.52 1102.87 130.309 1097.43 128.768C1091.98 127.116 1087.15 125.025 1082.92 122.492C1078.81 119.96 1075.53 116.878 1073.09 113.245C1070.76 109.502 1069.59 105.098 1069.59 100.034C1069.59 93.7589 1071.37 88.2544 1074.92 83.5205C1078.59 78.7866 1083.98 75.0986 1091.09 72.4564C1098.21 69.8142 1106.93 68.4932 1117.27 68.4932C1132.82 68.4932 1144.77 71.7959 1153.11 78.4013C1161.55 84.8966 1165.66 93.869 1165.44 105.318H1143.77C1143.33 98.8231 1140.55 94.1442 1135.44 91.2819C1130.43 88.4195 1124.1 86.9883 1116.43 86.9883C1109.32 86.9883 1103.43 88.0342 1098.76 90.1259C1094.2 92.2176 1091.93 95.7956 1091.93 100.86C1091.93 102.841 1092.48 104.603 1093.59 106.144C1094.7 107.575 1096.59 108.841 1099.26 109.942C1101.93 111.043 1105.54 112.089 1110.1 113.08C1114.65 114.071 1120.32 115.061 1127.1 116.052C1133.44 116.933 1139.16 118.144 1144.27 119.685C1149.49 121.116 1153.94 123.043 1157.61 125.465C1161.39 127.777 1164.28 130.749 1166.28 134.382C1168.28 138.015 1169.28 142.474 1169.28 147.758C1169.28 154.254 1167.55 159.923 1164.11 164.767C1160.77 169.501 1155.55 173.189 1148.44 175.831C1141.44 178.473 1132.32 179.795 1121.1 179.795C1113.1 179.795 1106.04 178.969 1099.93 177.317C1093.82 175.556 1088.54 173.244 1084.09 170.382C1079.65 167.519 1076.03 164.382 1073.26 160.969C1070.48 157.556 1068.48 154.143 1067.25 150.731C1066.14 147.318 1065.7 144.235 1065.92 141.483Z" stroke="#202025" stroke-width="16" mask="url(#path-4-outside-1_978_46363)"/>
<path d="M1224.84 177.483L1179.33 70.6399H1203.84L1242.35 165.263L1235.18 165.428L1271.85 70.6399H1297.36L1334.03 165.428L1326.87 165.263L1365.37 70.6399H1389.38L1344.37 177.483H1317.2L1281.19 84.8416H1288.19L1252.02 177.483H1224.84Z" stroke="#202025" stroke-width="16" mask="url(#path-4-outside-1_978_46363)"/>
<path d="M1409 154.199V135.868H1480.35V154.199H1409ZM1382.16 177.483L1432.84 70.6399H1456.85L1508.02 177.483H1483.85L1439.51 81.2086H1450.18L1406.17 177.483H1382.16Z" stroke="#202025" stroke-width="16" mask="url(#path-4-outside-1_978_46363)"/>
<path d="M1542.88 142.804V125.3H1592.22C1598.11 125.3 1602.78 123.759 1606.22 120.676C1609.67 117.483 1611.39 113.08 1611.39 107.465C1611.39 101.63 1609.67 97.1717 1606.22 94.0892C1602.78 91.0066 1598.11 89.4654 1592.22 89.4654H1545.54V177.483H1523.37V70.6399H1590.22C1596.22 70.6399 1601.83 71.3555 1607.06 72.7867C1612.39 74.2179 1617 76.4197 1620.89 79.3921C1624.89 82.3645 1628 86.1627 1630.23 90.7865C1632.45 95.4103 1633.56 100.97 1633.56 107.465C1633.56 113.85 1632.45 119.3 1630.23 123.814C1628 128.327 1624.89 132.015 1620.89 134.878C1617 137.63 1612.39 139.667 1607.06 140.988C1601.83 142.199 1596.22 142.804 1590.22 142.804H1542.88Z" stroke="#202025" stroke-width="16" mask="url(#path-4-outside-1_978_46363)"/>
<defs>
<linearGradient id="paint0_linear_978_46363" x1="115.582" y1="0" x2="115.582" y2="250" gradientUnits="userSpaceOnUse">
<stop stop-color="#DAFF73"/>
<stop offset="1" stop-color="#FFA6D6"/>
</linearGradient>
<linearGradient id="paint1_linear_978_46363" x1="283.397" y1="122.437" x2="1607.75" y2="122.437" gradientUnits="userSpaceOnUse">
<stop stop-color="#DAFF73"/>
<stop offset="1" stop-color="#FFA6D6"/>
</linearGradient>
<linearGradient id="paint2_linear_978_46363" x1="283.397" y1="122.437" x2="1607.75" y2="122.437" gradientUnits="userSpaceOnUse">
<stop stop-color="#DAFF73"/>
<stop offset="1" stop-color="#FFA6D6"/>
</linearGradient>
<linearGradient id="paint3_linear_978_46363" x1="283.397" y1="122.437" x2="1607.75" y2="122.437" gradientUnits="userSpaceOnUse">
<stop stop-color="#DAFF73"/>
<stop offset="1" stop-color="#FFA6D6"/>
</linearGradient>
<linearGradient id="paint4_linear_978_46363" x1="283.397" y1="122.437" x2="1607.75" y2="122.437" gradientUnits="userSpaceOnUse">
<stop stop-color="#DAFF73"/>
<stop offset="1" stop-color="#FFA6D6"/>
</linearGradient>
<linearGradient id="paint5_linear_978_46363" x1="283.397" y1="122.437" x2="1607.75" y2="122.437" gradientUnits="userSpaceOnUse">
<stop stop-color="#DAFF73"/>
<stop offset="1" stop-color="#FFA6D6"/>
</linearGradient>
<linearGradient id="paint6_linear_978_46363" x1="283.397" y1="122.437" x2="1607.75" y2="122.437" gradientUnits="userSpaceOnUse">
<stop stop-color="#DAFF73"/>
<stop offset="1" stop-color="#FFA6D6"/>
</linearGradient>
<linearGradient id="paint7_linear_978_46363" x1="283.397" y1="122.437" x2="1607.75" y2="122.437" gradientUnits="userSpaceOnUse">
<stop stop-color="#DAFF73"/>
<stop offset="1" stop-color="#FFA6D6"/>
</linearGradient>
<linearGradient id="paint8_linear_978_46363" x1="283.397" y1="122.437" x2="1607.75" y2="122.437" gradientUnits="userSpaceOnUse">
<stop stop-color="#DAFF73"/>
<stop offset="1" stop-color="#FFA6D6"/>
</linearGradient>
<linearGradient id="paint9_linear_978_46363" x1="283.397" y1="122.437" x2="1607.75" y2="122.437" gradientUnits="userSpaceOnUse">
<stop stop-color="#DAFF73"/>
<stop offset="1" stop-color="#FFA6D6"/>
</linearGradient>
</defs>
</svg>
