<svg width="64" height="64" viewBox="0 0 64 64" fill="none" xmlns="http://www.w3.org/2000/svg">
<rect x="0.5" y="0.5" width="63" height="63" rx="31.5" fill="#202025"/>
<rect x="0.5" y="0.5" width="63" height="63" rx="31.5" stroke="white"/>
<path d="M45.7438 30L17.9998 30C17.9998 27.791 19.7908 26 21.9998 26L34.9998 26L34.9998 20.714C34.9998 20.081 35.7648 19.765 36.2118 20.212L45.8188 29.819C45.8858 29.8861 45.8378 30 45.7438 30ZM27.7878 43.788L18.1878 34.188C18.1178 34.118 18.1678 34 18.2658 34L45.9998 34C45.9998 36.209 44.2088 38 41.9998 38L28.9998 38L28.9998 43.286C28.9998 43.918 28.2348 44.235 27.7878 43.788Z" fill="white"/>
</svg>
