<svg width="14" height="14" viewBox="0 0 14 14" fill="none" xmlns="http://www.w3.org/2000/svg">
<path d="M6.99996 1.58333C6.58575 1.58333 6.24996 1.91912 6.24996 2.33333C6.24996 2.74755 6.58575 3.08333 6.99996 3.08333L6.99996 1.58333ZM12.3333 3.08333C12.7475 3.08333 13.0833 2.74755 13.0833 2.33333C13.0833 1.91912 12.7475 1.58333 12.3333 1.58333L12.3333 3.08333ZM6.99996 10.9167C6.58575 10.9167 6.24996 11.2525 6.24996 11.6667C6.24996 12.0809 6.58575 12.4167 6.99996 12.4167V10.9167ZM12.3333 12.4167C12.7475 12.4167 13.0833 12.0809 13.0833 11.6667C13.0833 11.2525 12.7475 10.9167 12.3333 10.9167V12.4167ZM6.99996 7.75C7.41417 7.75 7.74996 7.41421 7.74996 7C7.74996 6.58579 7.41417 6.25 6.99996 6.25L6.99996 7.75ZM1.66663 6.25C1.25241 6.25 0.916626 6.58579 0.916626 7C0.916626 7.41421 1.25241 7.75 1.66663 7.75L1.66663 6.25ZM6.99996 3.08333L12.3333 3.08333L12.3333 1.58333L6.99996 1.58333L6.99996 3.08333ZM6.99996 12.4167H12.3333V10.9167H6.99996V12.4167ZM6.99996 6.25L1.66663 6.25L1.66663 7.75L6.99996 7.75L6.99996 6.25ZM0.916626 2.33333C0.916626 3.48393 1.84937 4.41667 2.99996 4.41667V2.91667C2.67779 2.91667 2.41663 2.6555 2.41663 2.33333H0.916626ZM2.99996 4.41667C4.15055 4.41667 5.08329 3.48393 5.08329 2.33333H3.58329C3.58329 2.6555 3.32213 2.91667 2.99996 2.91667V4.41667ZM5.08329 2.33333C5.08329 1.18274 4.15055 0.25 2.99996 0.25V1.75C3.32213 1.75 3.58329 2.01117 3.58329 2.33333H5.08329ZM2.99996 0.25C1.84937 0.25 0.916626 1.18274 0.916626 2.33333H2.41663C2.41663 2.01117 2.67779 1.75 2.99996 1.75V0.25ZM0.916626 11.6667C0.916626 12.8173 1.84937 13.75 2.99996 13.75V12.25C2.67779 12.25 2.41663 11.9888 2.41663 11.6667H0.916626ZM2.99996 13.75C4.15055 13.75 5.08329 12.8173 5.08329 11.6667H3.58329C3.58329 11.9888 3.32213 12.25 2.99996 12.25V13.75ZM5.08329 11.6667C5.08329 10.5161 4.15055 9.58333 2.99996 9.58333V11.0833C3.32213 11.0833 3.58329 11.3445 3.58329 11.6667H5.08329ZM2.99996 9.58333C1.84937 9.58333 0.916626 10.5161 0.916626 11.6667H2.41663C2.41663 11.3445 2.67779 11.0833 2.99996 11.0833V9.58333ZM13.0833 7C13.0833 5.84941 12.1506 4.91667 11 4.91667L11 6.41667C11.3221 6.41667 11.5833 6.67783 11.5833 7L13.0833 7ZM11 4.91667C9.84937 4.91667 8.91663 5.84941 8.91663 7L10.4166 7C10.4166 6.67783 10.6778 6.41667 11 6.41667L11 4.91667ZM8.91663 7C8.91663 8.15059 9.84937 9.08333 11 9.08333L11 7.58333C10.6778 7.58333 10.4166 7.32217 10.4166 7L8.91663 7ZM11 9.08333C12.1506 9.08333 13.0833 8.15059 13.0833 7L11.5833 7C11.5833 7.32217 11.3221 7.58333 11 7.58333L11 9.08333Z" fill="#202025"/>
</svg>
