<svg width="12" height="13" viewBox="0 0 12 13" fill="none" xmlns="http://www.w3.org/2000/svg">
<g clip-path="url(#clip0_173_210)">
<path d="M4.57865 1.9812C4.98681 0.551025 7.01365 0.551025 7.4218 1.9812C7.64075 2.74839 8.42894 3.20345 9.20282 3.00947C10.6455 2.64786 11.6589 4.40315 10.6244 5.47171C10.0695 6.04492 10.0695 6.95504 10.6244 7.52825C11.6589 8.59681 10.6455 10.3521 9.20282 9.99049C8.42894 9.79651 7.64075 10.2516 7.4218 11.0188C7.01365 12.4489 4.98681 12.4489 4.57865 11.0188C4.35971 10.2516 3.57152 9.79651 2.79764 9.99049C1.35499 10.3521 0.34157 8.59681 1.37606 7.52825C1.931 6.95505 1.931 6.04492 1.37606 5.47171C0.34157 4.40315 1.35499 2.64786 2.79764 3.00947C3.57152 3.20345 4.35971 2.74839 4.57865 1.9812Z" fill="#FFA6D6"/>
<path d="M8.00023 4.99998L6.26845 7.07812C5.91243 7.50534 5.73442 7.71896 5.50023 7.71896C5.26604 7.71896 5.08803 7.50534 4.73201 7.07812L4.00023 6.19998M2.79764 3.00947C3.57152 3.20345 4.35971 2.74839 4.57865 1.9812C4.98681 0.551025 7.01365 0.551025 7.4218 1.9812C7.64075 2.74839 8.42894 3.20345 9.20282 3.00947C10.6455 2.64786 11.6589 4.40315 10.6244 5.47171C10.0695 6.04492 10.0695 6.95504 10.6244 7.52825C11.6589 8.59681 10.6455 10.3521 9.20282 9.99049C8.42894 9.79651 7.64075 10.2516 7.4218 11.0188C7.01365 12.4489 4.98681 12.4489 4.57865 11.0188C4.35971 10.2516 3.57152 9.79651 2.79764 9.99049C1.35499 10.3521 0.34157 8.59681 1.37606 7.52825C1.931 6.95505 1.931 6.04492 1.37606 5.47171C0.34157 4.40315 1.35499 2.64786 2.79764 3.00947Z" stroke="#1E1E1E" stroke-linecap="round"/>
</g>
<defs>
<clipPath id="clip0_173_210">
<rect width="12" height="12" fill="white" transform="translate(0 0.5)"/>
</clipPath>
</defs>
</svg>
